<?xml version="1.0" standalone="no"?><!-- Generator: Gravit.io --><svg xmlns="http://www.w3.org/2000/svg" xmlns:xlink="http://www.w3.org/1999/xlink" style="isolation:isolate" viewBox="0 0 933 415.5" width="933" height="415.5"><defs><clipPath id="_clipPath_UE7EQpdpMf0l9WSE6eE0v4DO2X67uGKq"><rect width="933" height="415.5"/></clipPath></defs><g clip-path="url(#_clipPath_UE7EQpdpMf0l9WSE6eE0v4DO2X67uGKq)"><g id="Group"><path d=" M 33.141 0 L 269.859 0 C 278.646 0 287.083 3.545 293.295 9.847 C 299.506 16.149 303 24.709 303 33.624 L 303 381.876 C 303 390.791 299.506 399.351 293.295 405.653 C 287.083 411.955 278.646 415.5 269.859 415.5 L 33.141 415.5 C 24.354 415.5 15.917 411.955 9.705 405.653 C 3.494 399.351 0 390.791 0 381.876 L 0 33.624 C 0 24.709 3.494 16.149 9.705 9.847 C 15.917 3.545 24.354 0 33.141 0 Z " fill="rgb(255,0,0)"/><path d=" M 33.141 19.214 L 269.859 19.214 C 273.628 19.214 277.236 20.732 279.906 23.431 C 282.566 26.14 284.062 29.801 284.062 33.624 L 284.062 381.876 C 284.062 385.699 282.566 389.36 279.906 392.069 C 277.236 394.768 273.628 396.286 269.859 396.286 L 33.141 396.286 C 29.372 396.286 25.764 394.768 23.094 392.069 C 20.434 389.36 18.938 385.699 18.938 381.876 L 18.938 33.624 C 18.938 29.801 20.434 26.14 23.094 23.431 C 25.764 20.732 29.372 19.214 33.141 19.214 Z " fill="rgb(255,255,255)"/><path d=" M 9.681 217.75 L 0 217.75 L 0 197.75 L 9.681 197.75 L 293.319 197.75 L 303 197.75 L 303 217.75 L 293.319 217.75 L 9.681 217.75 Z " fill="rgb(255,0,0)"/><path d=" M 222.25 207.74 C 222.25 207.74 222.25 207.75 222.25 207.75 C 222.26 217.21 220.36 226.57 216.68 235.28 C 213.12 243.68 207.97 251.32 201.52 257.77 C 195.07 264.22 187.43 269.37 179.03 272.93 C 170.32 276.61 160.96 278.51 151.5 278.5 C 142.04 278.51 132.68 276.61 123.97 272.93 C 115.57 269.37 107.93 264.22 101.48 257.77 C 95.03 251.32 89.88 243.68 86.32 235.28 C 82.64 226.57 80.74 217.21 80.75 207.75 C 80.74 198.29 82.64 188.93 86.32 180.22 C 89.88 171.82 95.03 164.18 101.48 157.73 C 107.93 151.28 115.57 146.13 123.97 142.57 C 132.68 138.89 142.04 136.99 151.5 137 C 160.96 136.99 170.32 138.89 179.03 142.57 C 187.43 146.13 195.07 151.28 201.52 157.73 C 207.97 164.18 213.12 171.82 216.68 180.22 C 220.36 188.93 222.26 198.29 222.25 207.75" fill="rgb(255,0,0)"/><path d=" M 202.25 207.76 C 202.26 214.54 200.9 221.25 198.26 227.49 C 195.71 233.52 192.01 239 187.38 243.63 C 182.75 248.26 177.27 251.96 171.24 254.51 C 164.99 257.15 158.28 258.51 151.5 258.5 C 144.72 258.51 138.01 257.15 131.76 254.51 C 125.73 251.96 120.25 248.26 115.62 243.63 C 110.99 239 107.29 233.52 104.74 227.49 C 102.1 221.24 100.74 214.53 100.75 207.75 C 100.74 200.97 102.1 194.25 104.74 188 C 107.29 181.98 110.99 176.5 115.62 171.87 C 120.25 167.24 125.73 163.54 131.76 160.99 C 138.01 158.35 144.72 156.99 151.5 157 C 158.28 156.99 164.99 158.35 171.24 160.99 C 177.27 163.54 182.75 167.24 187.38 171.87 C 192.01 176.5 195.71 181.98 198.26 188.01 C 200.9 194.25 202.26 200.96 202.25 207.74 C 202.25 207.74 202.25 207.75 202.25 207.75 L 202.25 207.75 L 202.25 207.76 Z " fill="rgb(255,255,255)"/></g><path d=" M 388.891 62.651 L 388.891 62.651 Q 397.539 62.651 403.908 65.533 L 403.908 65.533 L 403.908 65.533 Q 410.277 68.416 413.718 73.716 L 413.718 73.716 L 413.718 73.716 Q 417.158 79.016 417.158 86.268 L 417.158 86.268 L 417.158 86.268 Q 417.158 93.428 413.718 98.775 L 413.718 98.775 L 413.718 98.775 Q 410.277 104.121 403.908 106.957 L 403.908 106.957 L 403.908 106.957 Q 397.539 109.793 388.891 109.793 L 388.891 109.793 L 375.781 109.793 L 375.781 127.739 L 360.718 127.739 L 360.718 62.651 L 388.891 62.651 L 388.891 62.651 Z  M 388.054 97.519 L 388.054 97.519 Q 394.842 97.519 398.375 94.59 L 398.375 94.59 L 398.375 94.59 Q 401.909 91.661 401.909 86.268 L 401.909 86.268 L 401.909 86.268 Q 401.909 80.782 398.375 77.854 L 398.375 77.854 L 398.375 77.854 Q 394.842 74.925 388.054 74.925 L 388.054 74.925 L 375.781 74.925 L 375.781 97.519 L 388.054 97.519 L 388.054 97.519 Z  M 460.302 128.854 L 460.302 128.854 Q 450.167 128.854 442.031 124.484 L 442.031 124.484 L 442.031 124.484 Q 433.895 120.114 429.292 112.443 L 429.292 112.443 L 429.292 112.443 Q 424.689 104.772 424.689 95.195 L 424.689 95.195 L 424.689 95.195 Q 424.689 85.618 429.292 77.946 L 429.292 77.946 L 429.292 77.946 Q 433.895 70.275 442.031 65.905 L 442.031 65.905 L 442.031 65.905 Q 450.167 61.535 460.302 61.535 L 460.302 61.535 L 460.302 61.535 Q 470.437 61.535 478.526 65.905 L 478.526 65.905 L 478.526 65.905 Q 486.616 70.275 491.265 77.946 L 491.265 77.946 L 491.265 77.946 Q 495.914 85.618 495.914 95.195 L 495.914 95.195 L 495.914 95.195 Q 495.914 104.772 491.265 112.443 L 491.265 112.443 L 491.265 112.443 Q 486.616 120.114 478.526 124.484 L 478.526 124.484 L 478.526 124.484 Q 470.437 128.854 460.302 128.854 L 460.302 128.854 L 460.302 128.854 Z  M 460.302 116.023 L 460.302 116.023 Q 466.067 116.023 470.716 113.373 L 470.716 113.373 L 470.716 113.373 Q 475.365 110.723 478.015 105.981 L 478.015 105.981 L 478.015 105.981 Q 480.665 101.239 480.665 95.195 L 480.665 95.195 L 480.665 95.195 Q 480.665 89.151 478.015 84.409 L 478.015 84.409 L 478.015 84.409 Q 475.365 79.667 470.716 77.017 L 470.716 77.017 L 470.716 77.017 Q 466.067 74.367 460.302 74.367 L 460.302 74.367 L 460.302 74.367 Q 454.537 74.367 449.888 77.017 L 449.888 77.017 L 449.888 77.017 Q 445.239 79.667 442.589 84.409 L 442.589 84.409 L 442.589 84.409 Q 439.939 89.151 439.939 95.195 L 439.939 95.195 L 439.939 95.195 Q 439.939 101.239 442.589 105.981 L 442.589 105.981 L 442.589 105.981 Q 445.239 110.723 449.888 113.373 L 449.888 113.373 L 449.888 113.373 Q 454.537 116.023 460.302 116.023 L 460.302 116.023 L 460.302 116.023 Z  M 551.796 127.739 L 530.968 102.168 L 522.228 111.281 L 522.228 127.739 L 507.258 127.739 L 507.258 62.651 L 522.228 62.651 L 522.228 93.056 L 551.053 62.651 L 567.789 62.651 L 540.825 91.661 L 569.37 127.739 L 551.796 127.739 L 551.796 127.739 Z  M 591.035 115.651 L 626.461 115.651 L 626.461 127.739 L 576.065 127.739 L 576.065 62.651 L 625.253 62.651 L 625.253 74.739 L 591.035 74.739 L 591.035 88.872 L 621.254 88.872 L 621.254 100.588 L 591.035 100.588 L 591.035 115.651 L 591.035 115.651 Z  M 592.244 57.351 L 604.796 43.961 L 620.418 43.961 L 603.588 57.351 L 592.244 57.351 L 592.244 57.351 Z  M 711.819 127.739 L 697.686 127.739 L 697.593 88.686 L 678.439 120.858 L 671.651 120.858 L 652.589 89.523 L 652.589 127.739 L 638.456 127.739 L 638.456 62.651 L 650.916 62.651 L 675.277 103.098 L 699.267 62.651 L 711.633 62.651 L 711.819 127.739 L 711.819 127.739 Z  M 758.775 128.854 L 758.775 128.854 Q 748.64 128.854 740.504 124.484 L 740.504 124.484 L 740.504 124.484 Q 732.368 120.114 727.766 112.443 L 727.766 112.443 L 727.766 112.443 Q 723.163 104.772 723.163 95.195 L 723.163 95.195 L 723.163 95.195 Q 723.163 85.618 727.766 77.946 L 727.766 77.946 L 727.766 77.946 Q 732.368 70.275 740.504 65.905 L 740.504 65.905 L 740.504 65.905 Q 748.64 61.535 758.775 61.535 L 758.775 61.535 L 758.775 61.535 Q 768.911 61.535 777 65.905 L 777 65.905 L 777 65.905 Q 785.089 70.275 789.739 77.946 L 789.739 77.946 L 789.739 77.946 Q 794.388 85.618 794.388 95.195 L 794.388 95.195 L 794.388 95.195 Q 794.388 104.772 789.739 112.443 L 789.739 112.443 L 789.739 112.443 Q 785.089 120.114 777 124.484 L 777 124.484 L 777 124.484 Q 768.911 128.854 758.775 128.854 L 758.775 128.854 L 758.775 128.854 Z  M 758.775 116.023 L 758.775 116.023 Q 764.54 116.023 769.189 113.373 L 769.189 113.373 L 769.189 113.373 Q 773.839 110.723 776.489 105.981 L 776.489 105.981 L 776.489 105.981 Q 779.139 101.239 779.139 95.195 L 779.139 95.195 L 779.139 95.195 Q 779.139 89.151 776.489 84.409 L 776.489 84.409 L 776.489 84.409 Q 773.839 79.667 769.189 77.017 L 769.189 77.017 L 769.189 77.017 Q 764.54 74.367 758.775 74.367 L 758.775 74.367 L 758.775 74.367 Q 753.011 74.367 748.361 77.017 L 748.361 77.017 L 748.361 77.017 Q 743.712 79.667 741.062 84.409 L 741.062 84.409 L 741.062 84.409 Q 738.412 89.151 738.412 95.195 L 738.412 95.195 L 738.412 95.195 Q 738.412 101.239 741.062 105.981 L 741.062 105.981 L 741.062 105.981 Q 743.712 110.723 748.361 113.373 L 748.361 113.373 L 748.361 113.373 Q 753.011 116.023 758.775 116.023 L 758.775 116.023 L 758.775 116.023 Z  M 850.549 62.651 L 865.426 62.651 L 865.426 127.739 L 853.06 127.739 L 820.609 88.221 L 820.609 127.739 L 805.732 127.739 L 805.732 62.651 L 818.191 62.651 L 850.549 102.168 L 850.549 62.651 L 850.549 62.651 Z " fill-rule="evenodd" fill="rgb(51,51,51)"/><path d=" M 391.867 242.2 L 391.867 242.2 Q 381.918 242.2 373.875 237.876 L 373.875 237.876 L 373.875 237.876 Q 365.832 233.553 361.229 225.882 L 361.229 225.882 L 361.229 225.882 Q 356.626 218.211 356.626 208.54 L 356.626 208.54 L 356.626 208.54 Q 356.626 198.87 361.229 191.199 L 361.229 191.199 L 361.229 191.199 Q 365.832 183.528 373.875 179.204 L 373.875 179.204 L 373.875 179.204 Q 381.918 174.881 391.96 174.881 L 391.96 174.881 L 391.96 174.881 Q 400.421 174.881 407.255 177.856 L 407.255 177.856 L 407.255 177.856 Q 414.089 180.832 418.739 186.411 L 418.739 186.411 L 409.068 195.337 L 409.068 195.337 Q 402.467 187.712 392.704 187.712 L 392.704 187.712 L 392.704 187.712 Q 386.66 187.712 381.918 190.362 L 381.918 190.362 L 381.918 190.362 Q 377.175 193.012 374.525 197.754 L 374.525 197.754 L 374.525 197.754 Q 371.875 202.496 371.875 208.54 L 371.875 208.54 L 371.875 208.54 Q 371.875 214.584 374.525 219.326 L 374.525 219.326 L 374.525 219.326 Q 377.175 224.068 381.918 226.718 L 381.918 226.718 L 381.918 226.718 Q 386.66 229.368 392.704 229.368 L 392.704 229.368 L 392.704 229.368 Q 402.467 229.368 409.068 221.651 L 409.068 221.651 L 418.739 230.577 L 418.739 230.577 Q 414.089 236.249 407.209 239.225 L 407.209 239.225 L 407.209 239.225 Q 400.328 242.2 391.867 242.2 L 391.867 242.2 L 391.867 242.2 Z  M 477.504 241.084 L 471.739 227.137 L 441.519 227.137 L 435.754 241.084 L 420.319 241.084 L 449.33 175.996 L 464.207 175.996 L 493.311 241.084 L 477.504 241.084 L 477.504 241.084 Z  M 446.354 215.7 L 466.996 215.7 L 456.675 190.781 L 446.354 215.7 L 446.354 215.7 Z  M 557.747 241.084 L 541.568 241.084 L 529.016 222.953 L 528.272 222.953 L 515.161 222.953 L 515.161 241.084 L 500.098 241.084 L 500.098 175.996 L 528.272 175.996 L 528.272 175.996 Q 536.919 175.996 543.289 178.879 L 543.289 178.879 L 543.289 178.879 Q 549.658 181.761 553.098 187.061 L 553.098 187.061 L 553.098 187.061 Q 556.539 192.361 556.539 199.614 L 556.539 199.614 L 556.539 199.614 Q 556.539 206.867 553.052 212.12 L 553.052 212.12 L 553.052 212.12 Q 549.565 217.374 543.149 220.163 L 543.149 220.163 L 557.747 241.084 L 557.747 241.084 Z  M 541.289 199.614 L 541.289 199.614 Q 541.289 194.128 537.756 191.199 L 537.756 191.199 L 537.756 191.199 Q 534.223 188.27 527.435 188.27 L 527.435 188.27 L 515.161 188.27 L 515.161 210.958 L 527.435 210.958 L 527.435 210.958 Q 534.223 210.958 537.756 207.982 L 537.756 207.982 L 537.756 207.982 Q 541.289 205.007 541.289 199.614 L 541.289 199.614 L 541.289 199.614 Z  M 568.44 241.084 L 568.44 175.996 L 598.009 175.996 L 598.009 175.996 Q 608.609 175.996 616.745 180.041 L 616.745 180.041 L 616.745 180.041 Q 624.881 184.086 629.39 191.432 L 629.39 191.432 L 629.39 191.432 Q 633.9 198.777 633.9 208.54 L 633.9 208.54 L 633.9 208.54 Q 633.9 218.304 629.39 225.649 L 629.39 225.649 L 629.39 225.649 Q 624.881 232.995 616.745 237.039 L 616.745 237.039 L 616.745 237.039 Q 608.609 241.084 598.009 241.084 L 598.009 241.084 L 568.44 241.084 L 568.44 241.084 Z  M 583.504 228.718 L 597.265 228.718 L 597.265 228.718 Q 607.028 228.718 612.839 223.278 L 612.839 223.278 L 612.839 223.278 Q 618.651 217.839 618.651 208.54 L 618.651 208.54 L 618.651 208.54 Q 618.651 199.242 612.839 193.803 L 612.839 193.803 L 612.839 193.803 Q 607.028 188.363 597.265 188.363 L 597.265 188.363 L 583.504 188.363 L 583.504 228.718 L 583.504 228.718 Z " fill-rule="evenodd" fill="rgb(51,51,51)"/><path d=" M 404.698 339.925 L 404.698 320.863 L 418.46 320.863 L 418.46 347.27 L 418.46 347.27 Q 413.16 351.268 406.186 353.407 L 406.186 353.407 L 406.186 353.407 Q 399.212 355.546 392.146 355.546 L 392.146 355.546 L 392.146 355.546 Q 382.011 355.546 373.921 351.222 L 373.921 351.222 L 373.921 351.222 Q 365.832 346.898 361.229 339.227 L 361.229 339.227 L 361.229 339.227 Q 356.626 331.556 356.626 321.886 L 356.626 321.886 L 356.626 321.886 Q 356.626 312.216 361.229 304.545 L 361.229 304.545 L 361.229 304.545 Q 365.832 296.874 374.014 292.55 L 374.014 292.55 L 374.014 292.55 Q 382.196 288.226 392.425 288.226 L 392.425 288.226 L 392.425 288.226 Q 400.979 288.226 407.953 291.109 L 407.953 291.109 L 407.953 291.109 Q 414.926 293.991 419.668 299.477 L 419.668 299.477 L 409.998 308.404 L 409.998 308.404 Q 403.025 301.058 393.168 301.058 L 393.168 301.058 L 393.168 301.058 Q 386.939 301.058 382.104 303.661 L 382.104 303.661 L 382.104 303.661 Q 377.268 306.265 374.572 311.007 L 374.572 311.007 L 374.572 311.007 Q 371.875 315.749 371.875 321.886 L 371.875 321.886 L 371.875 321.886 Q 371.875 327.93 374.572 332.672 L 374.572 332.672 L 374.572 332.672 Q 377.268 337.414 382.057 340.064 L 382.057 340.064 L 382.057 340.064 Q 386.846 342.714 392.982 342.714 L 392.982 342.714 L 392.982 342.714 Q 399.491 342.714 404.698 339.925 L 404.698 339.925 L 404.698 339.925 Z  M 481.037 354.43 L 475.272 340.482 L 445.053 340.482 L 439.288 354.43 L 423.853 354.43 L 452.863 289.342 L 467.74 289.342 L 496.844 354.43 L 481.037 354.43 L 481.037 354.43 Z  M 449.888 329.046 L 470.53 329.046 L 460.209 304.126 L 449.888 329.046 L 449.888 329.046 Z  M 576.995 354.43 L 562.861 354.43 L 562.768 315.377 L 543.614 347.549 L 536.826 347.549 L 517.765 316.214 L 517.765 354.43 L 503.632 354.43 L 503.632 289.342 L 516.091 289.342 L 540.453 329.789 L 564.442 289.342 L 576.809 289.342 L 576.995 354.43 L 576.995 354.43 Z  M 607.4 342.342 L 642.826 342.342 L 642.826 354.43 L 592.43 354.43 L 592.43 289.342 L 641.618 289.342 L 641.618 301.43 L 607.4 301.43 L 607.4 315.563 L 637.619 315.563 L 637.619 327.279 L 607.4 327.279 L 607.4 342.342 L 607.4 342.342 Z " fill-rule="evenodd" fill="rgb(51,51,51)"/></g></svg>