<?xml version="1.0" standalone="no"?><!-- Generator: Gravit.io --><svg xmlns="http://www.w3.org/2000/svg" xmlns:xlink="http://www.w3.org/1999/xlink" style="isolation:isolate" viewBox="0 0 303 415.5" width="303" height="415.5"><defs><clipPath id="_clipPath_6prgvFdSGJvPQrYzX18lY2OgtR6XcnVr"><rect width="303" height="415.5"/></clipPath></defs><g clip-path="url(#_clipPath_6prgvFdSGJvPQrYzX18lY2OgtR6XcnVr)"><g id="Group"><path d=" M 33.141 0 L 269.859 0 C 278.646 0 287.083 3.545 293.295 9.847 C 299.506 16.149 303 24.709 303 33.624 L 303 381.876 C 303 390.791 299.506 399.351 293.295 405.653 C 287.083 411.955 278.646 415.5 269.859 415.5 L 33.141 415.5 C 24.354 415.5 15.917 411.955 9.705 405.653 C 3.494 399.351 0 390.791 0 381.876 L 0 33.624 C 0 24.709 3.494 16.149 9.705 9.847 C 15.917 3.545 24.354 0 33.141 0 Z " fill="rgb(255,0,0)"/><path d=" M 33.141 19.214 L 269.859 19.214 C 273.628 19.214 277.236 20.732 279.906 23.431 C 282.566 26.14 284.062 29.801 284.062 33.624 L 284.062 381.876 C 284.062 385.699 282.566 389.36 279.906 392.069 C 277.236 394.768 273.628 396.286 269.859 396.286 L 33.141 396.286 C 29.372 396.286 25.764 394.768 23.094 392.069 C 20.434 389.36 18.937 385.699 18.937 381.876 L 18.937 33.624 C 18.937 29.801 20.434 26.14 23.094 23.431 C 25.764 20.732 29.372 19.214 33.141 19.214 Z " fill="rgb(255,255,255)"/><path d=" M 9.681 217.75 L 0 217.75 L 0 197.75 L 9.681 197.75 L 293.319 197.75 L 303 197.75 L 303 217.75 L 293.319 217.75 L 9.681 217.75 Z " fill="rgb(255,0,0)"/><path d=" M 222.25 207.74 C 222.25 207.74 222.25 207.75 222.25 207.75 C 222.26 217.21 220.36 226.57 216.68 235.28 C 213.12 243.68 207.97 251.32 201.52 257.77 C 195.07 264.22 187.43 269.37 179.03 272.93 C 170.32 276.61 160.96 278.51 151.5 278.5 C 142.04 278.51 132.68 276.61 123.97 272.93 C 115.57 269.37 107.93 264.22 101.48 257.77 C 95.03 251.32 89.88 243.68 86.32 235.28 C 82.64 226.57 80.74 217.21 80.75 207.75 C 80.74 198.29 82.64 188.93 86.32 180.22 C 89.88 171.82 95.03 164.18 101.48 157.73 C 107.93 151.28 115.57 146.13 123.97 142.57 C 132.68 138.89 142.04 136.99 151.5 137 C 160.96 136.99 170.32 138.89 179.03 142.57 C 187.43 146.13 195.07 151.28 201.52 157.73 C 207.97 164.18 213.12 171.82 216.68 180.22 C 220.36 188.93 222.26 198.29 222.25 207.75" fill="rgb(255,0,0)"/><path d=" M 202.25 207.76 C 202.26 214.54 200.9 221.25 198.26 227.49 C 195.71 233.52 192.01 239 187.38 243.63 C 182.75 248.26 177.27 251.96 171.24 254.51 C 164.99 257.15 158.28 258.51 151.5 258.5 C 144.72 258.51 138.01 257.15 131.76 254.51 C 125.73 251.96 120.25 248.26 115.62 243.63 C 110.99 239 107.29 233.52 104.74 227.49 C 102.1 221.24 100.74 214.53 100.75 207.75 C 100.74 200.97 102.1 194.25 104.74 188 C 107.29 181.98 110.99 176.5 115.62 171.87 C 120.25 167.24 125.73 163.54 131.76 160.99 C 138.01 158.35 144.72 156.99 151.5 157 C 158.28 156.99 164.99 158.35 171.24 160.99 C 177.27 163.54 182.75 167.24 187.38 171.87 C 192.01 176.5 195.71 181.98 198.26 188.01 C 200.9 194.25 202.26 200.96 202.25 207.74 C 202.25 207.74 202.25 207.75 202.25 207.75 L 202.25 207.75 L 202.25 207.76 Z " fill="rgb(255,255,255)"/></g></g></svg>